<svg id="visual" viewBox="0 0 900 600" width="900" height="600" xmlns="http://www.w3.org/2000/svg" xmlns:xlink="http://www.w3.org/1999/xlink" version="1.1"><rect x="0" y="0" width="900" height="600" fill="#ffffff"></rect><defs><linearGradient id="grad1_0" x1="33.3%" y1="0%" x2="100%" y2="100%"><stop offset="20%" stop-color="#64f47c" stop-opacity="1"></stop><stop offset="80%" stop-color="#64f47c" stop-opacity="1"></stop></linearGradient></defs><defs><linearGradient id="grad1_1" x1="33.3%" y1="0%" x2="100%" y2="100%"><stop offset="20%" stop-color="#64f47c" stop-opacity="1"></stop><stop offset="80%" stop-color="#8cf797" stop-opacity="1"></stop></linearGradient></defs><defs><linearGradient id="grad1_2" x1="33.3%" y1="0%" x2="100%" y2="100%"><stop offset="20%" stop-color="#adfab1" stop-opacity="1"></stop><stop offset="80%" stop-color="#8cf797" stop-opacity="1"></stop></linearGradient></defs><defs><linearGradient id="grad1_3" x1="33.3%" y1="0%" x2="100%" y2="100%"><stop offset="20%" stop-color="#adfab1" stop-opacity="1"></stop><stop offset="80%" stop-color="#cafccb" stop-opacity="1"></stop></linearGradient></defs><defs><linearGradient id="grad1_4" x1="33.3%" y1="0%" x2="100%" y2="100%"><stop offset="20%" stop-color="#e5fee5" stop-opacity="1"></stop><stop offset="80%" stop-color="#cafccb" stop-opacity="1"></stop></linearGradient></defs><defs><linearGradient id="grad1_5" x1="33.3%" y1="0%" x2="100%" y2="100%"><stop offset="20%" stop-color="#e5fee5" stop-opacity="1"></stop><stop offset="80%" stop-color="#ffffff" stop-opacity="1"></stop></linearGradient></defs><defs><linearGradient id="grad2_0" x1="0%" y1="0%" x2="66.7%" y2="100%"><stop offset="20%" stop-color="#64f47c" stop-opacity="1"></stop><stop offset="80%" stop-color="#64f47c" stop-opacity="1"></stop></linearGradient></defs><defs><linearGradient id="grad2_1" x1="0%" y1="0%" x2="66.7%" y2="100%"><stop offset="20%" stop-color="#8cf797" stop-opacity="1"></stop><stop offset="80%" stop-color="#64f47c" stop-opacity="1"></stop></linearGradient></defs><defs><linearGradient id="grad2_2" x1="0%" y1="0%" x2="66.7%" y2="100%"><stop offset="20%" stop-color="#8cf797" stop-opacity="1"></stop><stop offset="80%" stop-color="#adfab1" stop-opacity="1"></stop></linearGradient></defs><defs><linearGradient id="grad2_3" x1="0%" y1="0%" x2="66.7%" y2="100%"><stop offset="20%" stop-color="#cafccb" stop-opacity="1"></stop><stop offset="80%" stop-color="#adfab1" stop-opacity="1"></stop></linearGradient></defs><defs><linearGradient id="grad2_4" x1="0%" y1="0%" x2="66.7%" y2="100%"><stop offset="20%" stop-color="#cafccb" stop-opacity="1"></stop><stop offset="80%" stop-color="#e5fee5" stop-opacity="1"></stop></linearGradient></defs><defs><linearGradient id="grad2_5" x1="0%" y1="0%" x2="66.7%" y2="100%"><stop offset="20%" stop-color="#ffffff" stop-opacity="1"></stop><stop offset="80%" stop-color="#e5fee5" stop-opacity="1"></stop></linearGradient></defs><g transform="translate(900, 0)"><path d="M0 486.7C-55.2 447.7 -110.4 408.7 -155.8 376C-201.1 343.4 -236.7 317.1 -289.9 289.9C-343.1 262.8 -414 234.7 -449.7 186.3C-485.4 137.8 -486.1 68.9 -486.7 0L0 0Z" fill="#f2fff2"></path><path d="M0 405.6C-46 373.1 -92 340.6 -129.8 313.3C-167.6 286.1 -197.3 264.2 -241.6 241.6C-285.9 219 -345 195.6 -374.7 155.2C-404.5 114.8 -405.1 57.4 -405.6 0L0 0Z" fill="#d8fdd8"></path><path d="M0 324.5C-36.8 298.5 -73.6 272.5 -103.8 250.7C-134.1 228.9 -157.8 211.4 -193.3 193.3C-228.7 175.2 -276 156.5 -299.8 124.2C-323.6 91.9 -324.1 45.9 -324.5 0L0 0Z" fill="#bbfbbe"></path><path d="M0 243.4C-27.6 223.9 -55.2 204.3 -77.9 188C-100.6 171.7 -118.4 158.5 -145 145C-171.6 131.4 -207 117.4 -224.8 93.1C-242.7 68.9 -243 34.5 -243.4 0L0 0Z" fill="#9df9a4"></path><path d="M0 162.2C-18.4 149.2 -36.8 136.2 -51.9 125.3C-67 114.5 -78.9 105.7 -96.6 96.6C-114.4 87.6 -138 78.2 -149.9 62.1C-161.8 45.9 -162 23 -162.2 0L0 0Z" fill="#79f689"></path><path d="M0 81.1C-9.2 74.6 -18.4 68.1 -26 62.7C-33.5 57.2 -39.5 52.8 -48.3 48.3C-57.2 43.8 -69 39.1 -74.9 31C-80.9 23 -81 11.5 -81.1 0L0 0Z" fill="#64f47c"></path></g><g transform="translate(0, 600)"><path d="M0 -486.7C62.4 -479.4 124.7 -472.1 186.3 -449.7C247.8 -427.3 308.5 -389.8 337.3 -337.3C366.1 -284.8 362.9 -217.2 382.5 -158.4C402.1 -99.7 444.4 -49.9 486.7 0L0 0Z" fill="#f2fff2"></path><path d="M0 -405.6C52 -399.5 103.9 -393.4 155.2 -374.7C206.5 -356.1 257.1 -324.9 281.1 -281.1C305.1 -237.3 302.4 -181 318.7 -132C335.1 -83.1 370.3 -41.5 405.6 0L0 0Z" fill="#d8fdd8"></path><path d="M0 -324.5C41.6 -319.6 83.2 -314.7 124.2 -299.8C165.2 -284.9 205.7 -259.9 224.9 -224.9C244 -189.8 241.9 -144.8 255 -105.6C268 -66.5 296.3 -33.2 324.5 0L0 0Z" fill="#bbfbbe"></path><path d="M0 -243.4C31.2 -239.7 62.4 -236 93.1 -224.8C123.9 -213.6 154.3 -194.9 168.6 -168.6C183 -142.4 181.4 -108.6 191.2 -79.2C201 -49.9 222.2 -24.9 243.4 0L0 0Z" fill="#9df9a4"></path><path d="M0 -162.2C20.8 -159.8 41.6 -157.4 62.1 -149.9C82.6 -142.4 102.8 -129.9 112.4 -112.4C122 -94.9 121 -72.4 127.5 -52.8C134 -33.2 148.1 -16.6 162.2 0L0 0Z" fill="#79f689"></path><path d="M0 -81.1C10.4 -79.9 20.8 -78.7 31 -74.9C41.3 -71.2 51.4 -65 56.2 -56.2C61 -47.5 60.5 -36.2 63.7 -26.4C67 -16.6 74.1 -8.3 81.1 0L0 0Z" fill="#64f47c"></path></g></svg>