<?xml version="1.0" standalone="no"?><svg xmlns="http://www.w3.org/2000/svg" viewBox="0 0 1440 320"><path fill="#64f47c" fill-opacity="1" d="M0,192L20,192C40,192,80,192,120,170.7C160,149,200,107,240,106.7C280,107,320,149,360,186.7C400,224,440,256,480,272C520,288,560,288,600,272C640,256,680,224,720,208C760,192,800,192,840,186.7C880,181,920,171,960,138.7C1000,107,1040,53,1080,58.7C1120,64,1160,128,1200,144C1240,160,1280,128,1320,133.3C1360,139,1400,181,1420,202.7L1440,224L1440,0L1420,0C1400,0,1360,0,1320,0C1280,0,1240,0,1200,0C1160,0,1120,0,1080,0C1040,0,1000,0,960,0C920,0,880,0,840,0C800,0,760,0,720,0C680,0,640,0,600,0C560,0,520,0,480,0C440,0,400,0,360,0C320,0,280,0,240,0C200,0,160,0,120,0C80,0,40,0,20,0L0,0Z"></path></svg>